<?xml version="1.0" encoding="UTF-8" standalone="no"?>
<!-- Created with Inkscape (http://www.inkscape.org/) -->
<svg id="svg2" xmlns:rdf="http://www.w3.org/1999/02/22-rdf-syntax-ns#" xmlns="http://www.w3.org/2000/svg" height="48" width="48" version="1.1" xmlns:cc="http://creativecommons.org/ns#" xmlns:dc="http://purl.org/dc/elements/1.1/" viewBox="0 0 48 48">
 <metadata id="metadata7">
  <rdf:RDF>
   <cc:Work rdf:about="">
    <dc:format>image/svg+xml</dc:format>
    <dc:type rdf:resource="http://purl.org/dc/dcmitype/StillImage"/>
    <dc:title/>
   </cc:Work>
  </rdf:RDF>
 </metadata>
 <g id="layer1" transform="translate(0 -1004.4)">
  <g id="g4718" transform="matrix(1.0322 0 0 1.0322 -.82933 -31.825)">
   <path id="path4871" d="m27.77 6.9844c-3.617-0.0163-7.471 0.1761-11.002 0.082-6.539 0-11.452 2.7539-11.452 8.9766 0.0004 11.137 15.241 8.752 15.241 14.027 0 2.39-2.572 3.653-5.457 3.653-2.616 0-4.418-0.946-4.418-0.946l-0.676-3.789h-4.5998v7.713h-5.1953c0.41653 0.767 0.8693 1.513 1.3555 2.233 0.4862 0.719 1.0053 1.414 1.5566 2.082h41.754c0.551-0.668 1.07-1.363 1.557-2.082 0.486-0.72 0.939-1.466 1.355-2.233h-7.615c2.118-1.5 3.287-3.861 3.287-7.262 0-3.472-2.209-5.997-6.447-7.214 3.562-1.128 5.41-3.517 5.41-7.44 0-5.3206-4.058-7.8006-9.92-7.8006h-4.734zm-10.549 4.9606c1.625 0 3.056 0.413 3.56 0.567v7.804c-4.03-1.66-8.342-2.383-8.342-5.17 0-1.803 1.58-3.201 4.782-3.201zm10.549 0.45h3.832c2.164 0 3.834 1.038 3.834 3.382 0 2.796-1.76 4.194-5.051 4.194h-2.615v-7.576zm0 12.31h2.615c4.058 0 5.953 1.443 5.953 4.734 0 2.48-1.67 3.924-4.826 3.924h-3.742v-8.658z" fill-rule="evenodd" transform="matrix(.96883 0 0 .96883 .80348 1003.9)"/>
  </g>
 </g>
</svg>
